<?xml version="1.0" encoding="UTF-8"?>
<svg width="2400px" height="382px" viewBox="0 0 2400 382" version="1.1" xmlns="http://www.w3.org/2000/svg" xmlns:xlink="http://www.w3.org/1999/xlink">
    <defs>
        <linearGradient x1="50%" y1="0%" x2="50%" y2="74.8958593%" id="linearGradient-1">
            <stop stop-color="#E1E8FF" offset="0%"></stop>
            <stop stop-color="#EEF2FE" offset="100%"></stop>
        </linearGradient>
    </defs>
    <path d="M0.44110338,400 L0.44110338,0.267893 C112.300736,145.732353 334.664519,232.582026 483.181749,232.582026 C754.699041,232.582026 912.267397,163.69492 1218.55486,163.69492 C1524.84232,163.69492 1596.62238,256.103489 1868.07886,256.103489 C2139.53533,256.103489 2350.93988,91.6415031 2400,11.922529 L2400.41625,400 L0.44110338,400 Z" id="Path-2" fill="#E8EDFF" fill-rule="nonzero" opacity="0.581194196"></path>
    <path d="M0.44110338,400 L0.44110338,26.182877 C112.300736,171.647337 379.100381,264.881 527.617611,264.881 C750.393456,264.881 893.71254,148.332391 1200,148.332391 C1506.28746,148.332391 1667.82886,281.510891 1902.83876,281.510891 C2137.84865,281.510891 2350.93988,141.988214 2400,62.2692404 L2400.41625,400 L0.44110338,400 Z" id="Path-2" fill="url(#linearGradient-1)" fill-rule="nonzero"></path>
</svg>